<svg width="84" height="82" viewBox="0 0 84 82" fill="none" xmlns="http://www.w3.org/2000/svg">
<path d="M62.8708 22.3104C63.8649 22.6004 64.7158 23.1709 65.3242 23.9555C65.9326 24.74 66.2734 25.7062 66.3067 26.7411L67.3125 57.7003C67.3417 58.6199 67.1274 59.5619 66.6895 60.4389C66.2517 61.3159 65.6044 62.0997 64.8079 62.7174C64.0113 63.3351 63.0911 63.7669 62.1327 63.9726C61.1743 64.1784 60.2086 64.1514 59.3252 63.8943L29.591 55.2135C28.5969 54.9235 27.746 54.3529 27.1376 53.5684C26.5292 52.7838 26.1884 51.8177 26.155 50.7827L25.1492 19.8235C25.1201 18.904 25.3344 17.962 25.7723 17.085C26.2101 16.2079 26.8573 15.4242 27.6539 14.8065C28.4505 14.1887 29.3706 13.757 30.3291 13.5512C31.2875 13.3455 32.2532 13.3724 33.1365 13.6295L62.8708 22.3104ZM61.4109 27.4975C61.4062 27.3494 61.3575 27.2112 61.2705 27.099C61.1835 26.9868 61.0617 26.9052 60.9195 26.8638L31.1853 18.183C31.0592 18.1463 30.9213 18.1424 30.7845 18.1718C30.6477 18.2012 30.5164 18.2628 30.4026 18.351C30.2889 18.4392 30.1965 18.5511 30.134 18.6763C30.0715 18.8015 30.0409 18.9359 30.045 19.0672L31.0508 50.0264C31.0556 50.1744 31.1043 50.3126 31.1913 50.4248C31.2783 50.537 31.4 50.6186 31.5422 50.66L61.2765 59.3409C61.4026 59.3776 61.5404 59.3814 61.6772 59.352C61.8141 59.3227 61.9454 59.261 62.0591 59.1728C62.1728 59.0846 62.2652 58.9728 62.3277 58.8476C62.3903 58.7224 62.4209 58.5879 62.4167 58.4566L61.4109 27.4975Z" fill="#377896"/>
<path d="M57.7005 57.0681C58.7292 56.6982 59.5889 56.0419 60.1791 55.1758C60.7694 54.3097 61.0659 53.2696 61.0341 52.1769L60.0887 19.4895C60.0599 18.5187 59.773 17.54 59.2549 16.6442C58.7367 15.7484 58.004 14.9645 57.1246 14.3652C56.2452 13.7659 55.2476 13.3705 54.2244 13.2158C53.2012 13.0611 52.1854 13.152 51.2712 13.4801L20.502 24.5531C19.4733 24.9231 18.6136 25.5794 18.0234 26.4455C17.4331 27.3116 17.1366 28.3517 17.1685 29.4444L18.1138 62.1317C18.1426 63.1026 18.4295 64.0813 18.9476 64.9771C19.4658 65.8729 20.1985 66.6568 21.0779 67.2561C21.9573 67.8554 22.9549 68.2508 23.9781 68.4055C25.0013 68.5602 26.0171 68.4693 26.9313 68.1411L57.7005 57.0681ZM55.8263 51.697C55.8309 51.8533 55.7885 52.0021 55.7041 52.1259C55.6197 52.2498 55.4967 52.3437 55.3495 52.3965L24.5803 63.4695C24.4498 63.5163 24.3048 63.5293 24.1587 63.5072C24.0127 63.4851 23.8703 63.4287 23.7447 63.3431C23.6192 63.2576 23.5146 63.1457 23.4406 63.0178C23.3666 62.8899 23.3257 62.7502 23.3215 62.6116L22.3762 29.9243C22.3716 29.768 22.414 29.6192 22.4984 29.4953C22.5828 29.3715 22.7058 29.2776 22.853 29.2248L53.6222 18.1518C53.7527 18.1049 53.8977 18.092 54.0438 18.1141C54.1898 18.1362 54.3322 18.1926 54.4578 18.2782C54.5833 18.3637 54.6879 18.4756 54.7619 18.6035C54.8359 18.7314 54.8768 18.8711 54.881 19.0097L55.8263 51.697Z" fill="#377896" fill-opacity="0.8"/>
</svg>
