<svg width="505" height="68" viewBox="0 0 505 68" fill="none" xmlns="http://www.w3.org/2000/svg">
<path d="M425.376 44.2295H430.575V35.9297H441.825V44.2295H447.976V67.9297H407.976V44.2295H414.126V35.9297H425.376V44.2295ZM466.592 45.4297C470.152 45.4297 472.623 46.0652 474.005 47.3359C475.387 48.6068 476.078 50.8464 476.078 54.0547V63.2422C476.078 64.0339 476.173 64.6172 476.361 64.9922C476.55 65.3671 476.874 65.5547 477.335 65.5547C477.837 65.5545 478.246 65.1795 478.56 64.4297C478.874 63.6797 479.072 62.513 479.156 60.9297H479.848C479.722 63.513 479.23 65.3255 478.371 66.3672C477.513 67.4088 476.078 67.9296 474.068 67.9297C472.268 67.9297 470.853 67.6484 469.827 67.0859C468.801 66.5234 468.142 65.6796 467.849 64.5547C467.43 65.763 466.812 66.6276 465.995 67.1484C465.179 67.6691 464.058 67.9297 462.635 67.9297C460.373 67.9297 458.698 67.4712 457.609 66.5547C456.52 65.638 455.976 64.263 455.976 62.4297C455.976 60.0131 457.002 58.4714 459.054 57.8047C461.106 57.138 463.535 56.8047 466.341 56.8047H467.66V53.3047C467.66 52.0547 467.629 50.9713 467.566 50.0547C467.504 49.138 467.367 48.388 467.157 47.8047C466.948 47.2215 466.708 46.7838 466.436 46.4922C466.163 46.2005 465.817 46.0547 465.398 46.0547C465.022 46.0547 464.676 46.1173 464.362 46.2422C464.048 46.3672 463.787 46.5339 463.577 46.7422C463.41 46.9505 463.305 47.1693 463.263 47.3984C463.221 47.6276 463.241 47.8672 463.325 48.1172C463.576 48.5755 463.87 49.0234 464.205 49.4609C464.54 49.8984 464.708 50.4089 464.708 50.9922C464.708 52.0338 464.341 52.9193 463.608 53.6484C462.876 54.3776 461.985 54.7422 460.938 54.7422C459.891 54.7422 459.001 54.3776 458.269 53.6484C457.536 52.9193 457.169 52.0339 457.169 50.9922C457.169 49.8672 457.42 48.9505 457.923 48.2422C458.425 47.5339 459.106 46.9714 459.965 46.5547C460.823 46.1381 461.818 45.8464 462.948 45.6797C464.079 45.513 465.294 45.4297 466.592 45.4297ZM493.668 45.4297C494.464 45.4297 495.176 45.6589 495.804 46.1172C496.432 46.5755 496.892 47.1589 497.186 47.8672L503.594 64.6797C503.929 65.4713 503.834 66.211 503.311 66.8984C502.787 67.5857 502.107 67.9296 501.27 67.9297C500.767 67.9297 500.306 67.7839 499.887 67.4922C499.468 67.2005 499.154 66.8046 498.944 66.3047L497.688 62.6797H489.647L488.391 66.3047C488.223 66.7629 487.93 67.1485 487.512 67.4609C487.093 67.7734 486.611 67.9297 486.066 67.9297C485.229 67.9296 484.549 67.5857 484.025 66.8984C483.502 66.2109 483.407 65.4713 483.742 64.6797L490.15 47.8672C490.444 47.1589 490.904 46.5755 491.532 46.1172C492.16 45.6589 492.872 45.4297 493.668 45.4297ZM126.623 8.92969C132.41 8.92969 136.821 10.3344 139.854 13.1436C142.945 15.9527 144.489 19.7737 144.489 24.6055C144.489 27.9763 143.646 30.6728 141.961 32.6953C140.332 34.6617 137.972 36.0942 134.882 36.9932V37.499C138.534 38.398 141.343 39.9714 143.31 42.2188C145.332 44.4661 146.344 47.5842 146.344 51.5732C146.344 56.5174 144.77 60.4505 141.624 63.3721C138.534 66.2935 134.18 67.7539 128.562 67.7539H105.976V8.92969H126.623ZM170.498 57.3887H195.78V67.7539H157.772V8.92969H170.498V57.3887ZM229.711 8.92969C232.576 8.92969 235.133 9.37939 237.38 10.2783C239.627 11.1211 241.509 12.357 243.026 13.9863C244.6 15.6157 245.78 17.5822 246.566 19.8857C247.353 22.1891 247.746 24.7735 247.746 27.6387C247.746 30.504 247.353 33.089 246.566 35.3926C245.78 37.6961 244.599 39.6627 243.026 41.292C241.509 42.9212 239.627 44.1851 237.38 45.084C235.133 45.9267 232.576 46.3477 229.711 46.3477H219.682V67.7539H206.956V8.92969H229.711ZM280.243 8.92969C283.108 8.92969 285.665 9.37945 287.912 10.2783C290.159 11.1211 292.042 12.3571 293.559 13.9863C295.132 15.6157 296.312 17.5822 297.099 19.8857C297.885 22.1892 298.278 24.7735 298.278 27.6387C298.278 31.7961 297.38 35.3641 295.582 38.3418C293.784 41.3195 291.227 43.2861 287.912 44.2412L299.458 67.7539H285.637L275.776 45.9268H269.962V67.7539H257.489V8.92969H280.243ZM335.327 48.0332H336.254V8.92969H347.041V67.7539H331.871L318.472 28.6504H317.545V67.7539H306.758V8.92969H321.927L335.327 48.0332ZM400.692 19.2959H383.753V67.7539H371.111V19.2959H354.172V8.92969H400.692V19.2959ZM41.3252 61.5156L40.4551 67.7109L35.9648 63.2793L24.3496 31.4883C25.2898 31.179 26.199 30.8068 27.0771 30.3721C27.9554 29.9372 28.7402 29.3764 29.4316 28.6904L41.3252 61.5156ZM61.001 22.3877H86.6318V17.9277H98.6562V29.9531H94.1963V55.584H98.6562V67.6094H86.6318V63.1494H61.001V67.6094H48.9756V55.584H53.4355V29.9531H48.9756V17.9277H61.001V22.3877ZM12.0576 28.5283C12.7436 29.2196 13.5082 29.786 14.3516 30.2275C15.195 30.6691 16.0856 31.0485 17.0234 31.3652L5.34668 63.1592L0.821289 67.5557L0 61.3535L12.0576 28.5283ZM467.66 57.5547C466.571 57.5547 465.776 57.8777 465.273 58.5234C464.771 59.1693 464.52 60.2214 464.52 61.6797V62.3672C464.52 63.8672 464.603 64.8672 464.771 65.3672C464.938 65.8672 465.252 66.1172 465.713 66.1172C466.257 66.1171 466.718 65.69 467.095 64.8359C467.472 63.9818 467.66 62.9505 467.66 61.7422V57.5547ZM410.976 64.9297H444.976V47.2295H410.976V64.9297ZM52.3633 64.2217H57.6133V58.9717H52.3633V64.2217ZM90.0186 64.2217H95.2695V58.9717H90.0186V64.2217ZM61.001 29.9531H56.8232V55.584H61.001V59.7617H86.6318V55.584H90.8096V29.9531H86.6318V25.7754H61.001V29.9531ZM118.28 58.9053H124.685C127.718 58.9053 129.938 58.3999 131.343 57.3887C132.747 56.3774 133.449 54.5229 133.449 51.8262V49.3818C133.449 46.6853 132.747 44.8316 131.343 43.8203C129.938 42.809 127.718 42.3027 124.685 42.3027H118.28V58.9053ZM491.28 58.3047H496.118L493.668 51.1797L491.28 58.3047ZM83.583 52.5918H80.7041L78.4453 46.4941H69.4688L67.2109 52.5918H64.0488L72.4609 30.4609H75.1143L83.583 52.5918ZM417.126 44.2295H422.376V38.9297H417.126V44.2295ZM433.575 44.2295H438.825V38.9297H433.575V44.2295ZM70.2598 43.8975H77.373L73.9854 34.5264H73.5898L70.2598 43.8975ZM497.123 17.9922C498.966 17.9922 500.411 18.1797 501.458 18.5547C502.505 18.9297 503.028 19.4298 503.028 20.0547C503.028 20.3047 502.986 20.5547 502.902 20.8047C502.819 21.0546 502.672 21.2839 502.463 21.4922C502.254 21.7838 501.992 21.9922 501.678 22.1172C501.364 22.2422 501.039 22.2629 500.704 22.1797C500.118 22.013 499.447 21.8672 498.693 21.7422C497.94 21.6172 497.248 21.5547 496.62 21.5547C493.647 21.5548 491.26 22.5548 489.459 24.5547C487.658 26.5547 486.758 29.2005 486.758 32.4922C486.758 33.4088 486.925 34.3672 487.26 35.3672C487.595 36.3671 488.349 36.8671 489.521 36.8672C489.982 36.8672 490.432 36.7629 490.872 36.5547C491.312 36.3464 491.699 36.0546 492.034 35.6797C492.746 34.9297 493.406 33.6797 494.014 31.9297C494.621 30.1797 495.175 28.0546 495.678 25.5547C495.761 25.013 495.982 24.6276 496.338 24.3984C496.694 24.1693 497.186 24.0547 497.814 24.0547C498.568 24.0548 499.144 24.2527 499.542 24.6484C499.94 25.0442 500.054 25.5339 499.887 26.1172C499.384 27.9088 499.018 29.4714 498.788 30.8047C498.558 32.138 498.442 33.3464 498.442 34.4297C498.442 35.263 498.558 35.8672 498.788 36.2422C499.018 36.6171 499.364 36.8047 499.824 36.8047C500.285 36.8047 500.735 36.638 501.175 36.3047C501.615 35.9714 502.233 35.3464 503.028 34.4297C503.112 34.3047 503.426 34.1588 503.971 33.9922C504.306 33.9922 504.557 34.1172 504.725 34.3672C504.892 34.6172 504.976 34.9714 504.976 35.4297C504.976 36.5964 504.305 37.7214 502.965 38.8047C501.625 39.8877 500.222 40.4296 498.757 40.4297C497.668 40.4297 496.736 40.138 495.961 39.5547C495.186 38.9714 494.653 38.138 494.359 37.0547C493.731 38.138 492.956 38.9818 492.034 39.5859C491.113 40.19 490.087 40.4922 488.956 40.4922C486.946 40.4921 485.344 39.7942 484.15 38.3984C482.957 37.0026 482.36 35.1171 482.36 32.7422C482.36 28.4089 483.732 24.8672 486.475 22.1172C489.218 19.3672 492.767 17.9922 497.123 17.9922ZM467.283 17.9297C469.712 17.9297 471.786 18.7839 473.503 20.4922C475.22 22.2005 476.078 24.2631 476.078 26.6797V40.4297H471.053V35.4297H463.514V40.4297H458.488V26.6797C458.488 24.263 459.347 22.2005 461.064 20.4922C462.781 18.784 464.854 17.9297 467.283 17.9297ZM219.682 36.1504H226.509C229.486 36.1503 231.537 35.5885 232.66 34.4648C233.84 33.3412 234.431 31.4876 234.431 28.9033V26.375C234.431 23.7905 233.84 21.9362 232.66 20.8125C231.536 19.689 229.486 19.127 226.509 19.127H219.682V36.1504ZM269.962 36.1504H277.21C280.187 36.1503 282.238 35.5885 283.361 34.4648C284.541 33.3412 285.132 31.4876 285.132 28.9033V26.375C285.132 23.7905 284.541 21.9362 283.361 20.8125C282.238 19.689 280.187 19.127 277.21 19.127H269.962V36.1504ZM118.28 33.875H123.084C126.062 33.875 128.225 33.3975 129.573 32.4424C130.921 31.431 131.596 29.633 131.596 27.0488V24.5205C131.596 21.9362 130.922 20.1661 129.573 19.2109C128.225 18.2559 126.062 17.7784 123.084 17.7783H118.28V33.875ZM467.283 22.9297C466.236 22.9297 465.346 23.2943 464.613 24.0234C463.88 24.7526 463.514 25.6381 463.514 26.6797V30.4297H471.053V26.6797C471.053 25.638 470.686 24.7526 469.953 24.0234C469.22 23.2943 468.33 22.9297 467.283 22.9297ZM23.7217 0.0224609L23.6904 7.91113C26.2553 8.48474 28.3011 9.79209 29.8271 11.833C31.3531 13.8739 32.1108 16.2093 32.1006 18.8389C32.0883 21.9695 30.9822 24.6268 28.7822 26.8096C26.5822 28.9923 23.9167 30.0777 20.7861 30.0654C17.6555 30.0531 14.9983 28.9471 12.8154 26.7471C10.6327 24.5471 9.54733 21.8815 9.55957 18.751C9.56992 16.1212 10.3466 13.7916 11.8887 11.7627C13.4307 9.73388 15.4864 8.44306 18.0557 7.88965L18.0869 0L23.7217 0.0224609ZM52.3633 26.5654H57.6133V21.3154H52.3633V26.5654ZM90.0186 26.5654H95.2695V21.3154H90.0186V26.5654ZM20.8525 13.1602C19.2872 13.154 17.9545 13.6967 16.8545 14.7881C15.7546 15.8794 15.2016 17.2073 15.1953 18.7725C15.1892 20.3378 15.7318 21.6705 16.8232 22.7705C17.9146 23.8705 19.2424 24.4244 20.8076 24.4307C22.3728 24.4368 23.7057 23.8939 24.8057 22.8027C25.9057 21.7114 26.4596 20.3826 26.4658 18.8174C26.472 17.2522 25.9291 15.9193 24.8379 14.8193C23.7465 13.7193 22.4178 13.1664 20.8525 13.1602Z" fill="#A0B9BE"/>
</svg>
